<?xml version="1.0" standalone="no"?>
<!DOCTYPE svg PUBLIC "-//W3C//DTD SVG 1.1//EN" "http://www.w3.org/Graphics/SVG/1.1/DTD/svg11.dtd" >
<svg xmlns="http://www.w3.org/2000/svg">
<metadata>Generated by IcoMoon</metadata>
<defs>
<font id="icomoon" horiz-adv-x="1024">
<font-face units-per-em="1024" ascent="960" descent="-64" />
<missing-glyph horiz-adv-x="1024" />
<glyph unicode="&#x20;" horiz-adv-x="512" d="" />
<glyph unicode="&#xe900;" glyph-name="change-adress" d="M674.422 594.142c-17.055 0-33.703-1.686-50.351-4.635l-578.628 257.425-0.406-294.925 365.448-84.264-365.448-84.264 0.406-294.925 327.687 145.775c20.708-153.78 147.397-272.172 301.293-272.172 168.106 0 304.541 141.562 304.541 315.99s-136.435 315.99-304.541 315.99zM674.422 46.426c-123.033 0-223.328 104.066-223.328 231.724s100.295 231.724 223.328 231.724c123.033 0 223.328-104.066 223.328-231.724s-100.295-231.724-223.328-231.724zM493.322 324.397l161.136-157.895 145.276 143.543v-94.124h41.508v164.049h-166.031v-41.011h95.259l-116.014-114.627-131.876 128.979-29.263-28.915z" />
<glyph unicode="&#xe901;" glyph-name="collected" d="M256.34 205.25l-101.738 605.416h-111.936v85.333h147.563c20.607 0 38.272-14.741 41.964-35.051l20.757-114.282h707.047c6.314 0 12.331-2.838 16.383-7.679s5.739-11.242 4.609-17.474l-85.333-516.264c-1.856-10.154-10.686-17.514-20.994-17.514h-597.332c-10.304 0-19.134 7.359-20.994 17.514zM319.998-42.664c-58.909 0-106.666 47.756-106.666 106.666s47.756 106.666 106.666 106.666c58.909 0 106.666-47.756 106.666-106.666s-47.756-106.666-106.666-106.666zM831.999-42.664c-58.909 0-106.666 47.756-106.666 106.666s47.756 106.666 106.666 106.666c58.909 0 106.666-47.756 106.666-106.666s-47.756-106.666-106.666-106.666zM723.2 580.168l-34.254 34.232-153.48-153.501 34.254-34.232 153.48 153.501zM873.302 661.333l-282.642-296.26-111.296 116.712-37.764-39.605 149.060-156.317 320.272 335.862-37.631 39.605zM300.8 435.652l149.785-149.785 37.95 37.95-149.785 149.785-37.95-37.95z" />
<glyph unicode="&#xe902;" glyph-name="created" d="M256.34 205.25l-101.738 605.416h-111.936v85.333h147.563c20.607 0 38.272-14.741 41.964-35.051l20.757-114.282h707.047c6.314 0 12.331-2.838 16.383-7.679s5.739-11.242 4.609-17.474l-85.333-516.264c-1.856-10.154-10.686-17.514-20.994-17.514h-597.332c-10.304 0-19.134 7.359-20.994 17.514zM319.998-42.664c-58.909 0-106.666 47.756-106.666 106.666s47.756 106.666 106.666 106.666c58.909 0 106.666-47.756 106.666-106.666s-47.756-106.666-106.666-106.666zM831.999-42.664c-58.909 0-106.666 47.756-106.666 106.666s47.756 106.666 106.666 106.666c58.909 0 106.666-47.756 106.666-106.666s-47.756-106.666-106.666-106.666zM531.819 303.746h88.444v134.096h132.667v89.397h-132.667v134.096h-88.444v-134.096h-132.667v-89.397h132.667v-134.096z" />
<glyph unicode="&#xe903;" glyph-name="delivered" d="M970.661 435.575c8.254-7.525 8.861-20.31 1.356-28.604-3.987-4.39-9.487-6.616-14.969-6.616-4.853 0-9.73 1.74-13.614 5.26l-431.433 392.229-431.433-392.209c-8.234-7.505-21.059-6.919-28.584 1.356-7.505 8.274-6.898 21.059 1.356 28.584l115.026 104.566c-0.040 0.607-0.262 1.194-0.262 1.822v202.293c0 11.186 9.042 20.229 20.229 20.229h80.919c11.186 0 20.229-9.042 20.229-20.229v-94.025l208.909 189.934c7.707 7 19.523 7 27.23 0l445.049-404.588zM512 743.163l343.902-312.646v-394.293c0-22.353-18.106-40.457-40.457-40.457h-606.882c-22.353 0-40.457 18.106-40.457 40.457v394.293l343.902 312.646zM438.203 185.423l-95.941 100.612-32.556-34.141 128.498-134.752 276.092 289.531-32.556 34.141-243.535-255.39z" />
<glyph unicode="&#xe904;" glyph-name="in-progress" d="M790.758 411.181v-123.892h92.918v-232.295c0-25.657-20.802-46.459-46.459-46.459h-743.35c-25.657 0-46.459 20.802-46.459 46.459v743.35c0 25.657 20.802 46.459 46.459 46.459h743.35c25.657 0 46.459-20.802 46.459-46.459v-232.295h92.918l-139.377-232.295-46.459 77.431zM790.758 411.181l-92.918 154.864h92.918v185.838h-650.43v-650.43h650.43v309.729zM651.377 384.429h-68.886c-3.991-15.457-10.073-30.052-17.993-43.462l48.696-48.696-59.721-59.721-48.696 48.696c-13.432-7.92-28.001-14.002-43.462-17.993v-68.886h-84.469v68.886c-15.457 3.991-30.052 10.073-43.462 17.993l-48.696-48.696-59.721 59.721 48.696 48.696c-7.92 13.432-14.002 28.001-17.993 43.462h-68.886v84.469h68.886c3.991 15.457 10.073 30.032 17.993 43.462l-48.696 48.696 59.721 59.721 48.696-48.696c13.432 7.92 28.001 14.002 43.462 17.993v68.886h84.469v-68.886c15.457-3.991 30.032-10.073 43.462-17.993l48.696 48.696 59.721-59.721-48.696-48.696c7.92-13.432 14.002-28.001 17.993-43.462h68.886v-84.469zM419.082 356.977c38.49 0 69.69 31.196 69.69 69.69s-31.196 69.69-69.69 69.69c-38.49 0-69.69-31.196-69.69-69.69s31.196-69.69 69.69-69.69z" />
<glyph unicode="&#xe905;" glyph-name="in-transit" d="M841.696 579.151l123.637-164.848v-206.059h-82.425c0-68.207-55.43-123.637-123.637-123.637s-123.637 55.43-123.637 123.637h-247.271c0-68.207-55.43-123.637-123.637-123.637s-123.637 55.43-123.637 123.637h-82.425v453.332c0 45.539 36.884 82.425 82.425 82.425h576.967v-164.848h123.637zM264.729 146.425c34.207 0 61.818 27.612 61.818 61.818s-27.612 61.818-61.818 61.818c-34.207 0-61.818-27.612-61.818-61.818s27.612-61.818 61.818-61.818zM821.089 517.332h-103.030v-103.030h184.010l-80.981 103.030zM759.271 146.425c34.207 0 61.818 27.612 61.818 61.818s-27.612 61.818-61.818 61.818c-34.207 0-61.818-27.612-61.818-61.818s27.612-61.818 61.818-61.818zM363.167 698.665c-118.136 0-213.834-91.345-213.834-203.999s95.696-203.999 213.834-203.999c59.010 0 112.318 22.894 150.905 59.84l-33.601 32.074c-30.038-28.674-71.476-46.58-117.424-46.58-91.778 0-166.221 71.060-166.221 158.664s74.445 158.664 166.221 158.664c91.778 0 166.221-71.060 166.221-158.664h-71.238l95.814-91.574 1.662 3.286 92.49 88.285h-71.238c0 112.654-95.459 203.999-213.595 203.999z" />
<glyph unicode="&#xe906;" glyph-name="ready-to-collect" d="M256.34 205.25l-101.738 605.416h-111.936v85.333h147.563c20.607 0 38.272-14.741 41.964-35.051l20.757-114.282h707.047c6.314 0 12.331-2.838 16.383-7.679s5.739-11.242 4.609-17.474l-85.333-516.264c-1.856-10.154-10.686-17.514-20.994-17.514h-597.332c-10.304 0-19.134 7.359-20.994 17.514zM319.998-42.664c-58.909 0-106.666 47.756-106.666 106.666s47.756 106.666 106.666 106.666c58.909 0 106.666-47.756 106.666-106.666s-47.756-106.666-106.666-106.666zM831.999-42.664c-58.909 0-106.666 47.756-106.666 106.666s47.756 106.666 106.666 106.666c58.909 0 106.666-47.756 106.666-106.666s-47.756-106.666-106.666-106.666zM520.261 365.075l-111.296 116.712-37.764-39.605 149.060-156.317 320.272 335.862-37.764 39.605-282.508-296.26z" />
<glyph unicode="&#xe907;" glyph-name="refunded" d="M882.527 896.002h98.808v-667.375h-749.451l177.111-194.515-69.906-76.774-296.42 325.547 296.42 325.547 69.906-76.774-177.111-194.515h650.644v558.859zM781.28 552.567c6.804 0 12.32-5.067 12.32-11.316v-98.058c0-6.248-5.516-11.316-12.32-11.316h-303.894c-6.804 0-12.32 5.067-12.32 11.316v37.716c0 6.248 5.516 11.316 12.32 11.316h36.96v120.684h-28.746c-6.804 0-12.32 5.067-12.32 11.316v37.716c0 6.248 5.516 11.316 12.32 11.316h28.746v62.267c0 69.035 59.574 118.764 143.662 118.764 49.942 0 87.464-21.271 104.285-32.933 5.542-3.843 6.522-11.131 2.177-16.105l-29.252-33.484c-3.902-4.466-10.817-5.56-16.106-2.53-12.089 6.924-34.901 17.77-59.19 17.77-38.224 0-63.44-23.4-63.44-53.823v-59.924h86.24c6.804 0 12.32-5.067 12.32-11.316v-37.716c0-6.248-5.516-11.316-12.32-11.316h-86.24v-119.6h125.772v47.943c0 6.248 5.516 11.316 12.32 11.316h46.707z" />
<glyph unicode="&#xe908;" glyph-name="return-failed" d="M880.477 888.219h98.261v-663.688h-745.307l176.134-193.44-69.52-76.351-294.783 323.75 294.783 323.75 69.52-76.351-176.134-193.44h647.050v555.772zM698.697 403.331h-140.021v140.021h140.021v-140.021zM698.697 613.364h-140.021v280.044h140.021v-280.044z" />
<glyph unicode="&#xe909;" glyph-name="return-in-progress" d="M790.757 411.181v-123.891h92.918v-232.295c0-25.658-20.802-46.459-46.459-46.459h-743.349c-25.658 0-46.459 20.802-46.459 46.459v743.349c0 25.658 20.802 46.459 46.459 46.459h743.349c25.658 0 46.459-20.802 46.459-46.459v-232.295h92.918l-139.378-232.295-46.459 77.431zM790.757 411.181l-92.918 154.864h92.918v185.837h-650.43v-650.43h650.43v309.729zM574.066 612.422h77.311v-294.285h-348.406l65.127-65.175-34.6-35.36-146.714 149.933 146.714 149.933 34.6-35.36-65.127-64.572h271.097v194.883z" />
<glyph unicode="&#xe90a;" glyph-name="returned" d="M882.527 890.814h98.808v-663.687h-749.451l177.111-193.44-69.906-76.351-296.42 323.751 296.42 323.751 69.906-76.351-177.111-193.44h650.644v555.772zM840.535 802.955l-299.629-327.021-169.706 185.221 85.25 93.045 84.455-92.174 214.377 233.977 85.25-93.045z" />
<glyph unicode="&#xe90b;" glyph-name="rebook-delivery" horiz-adv-x="1347" d="M1122.662 661.265l168.372-234.598v-293.249h-112.248c0-97.066-75.487-175.95-168.372-175.95s-168.372 78.883-168.372 175.95h-336.744c0-97.066-75.487-175.95-168.372-175.95s-168.372 78.883-168.372 175.95h-112.248v645.147c0 64.807 50.231 117.3 112.248 117.3h785.737v-234.598h168.372zM336.923 45.443c46.584 0 84.185 39.295 84.185 87.975s-37.601 87.975-84.185 87.975c-46.584 0-84.185-39.295-84.185-87.975s37.601-87.975 84.185-87.975zM1094.599 573.291h-140.311v-146.624h250.594l-110.284 146.624zM1010.413 45.443c46.584 0 84.185 39.295 84.185 87.975s-37.601 87.975-84.185 87.975c-46.584 0-84.185-39.295-84.185-87.975s37.601-87.975 84.185-87.975zM797.141 611.892v234.582l-90.029-92.516c-115.373 114.41-301.026 114.41-416.399 0-115.538-114.41-114.714-299.938 0.824-414.347s303.166-114.41 418.704 0c57.934 57.454 86.9 142.067 86.9 207.257h-65.998c0.165-65.189-22.221-116.715-66.985-161.162-89.862-89.060-235.356-89.060-325.22 0s-89.862 233.266 0 322.326c89.862 89.060 235.356 85.767 325.22-3.291l-90.358-92.846h223.342zM487.13 709.704h-54.709v-211.625l156.1-107.506 26.259 51.212-127.652 88.036v179.882z" />
<glyph unicode="&#xe90c;" glyph-name="price-history" horiz-adv-x="1158" d="M654.2 882.129c250.932 0 454.201-204.807 454.201-457.388s-203.268-457.388-454.201-457.388c-125.34 0-238.575 51.329-320.538 134.167l71.371 71.911c63.805-64.288 151.82-104.435 249.419-104.435 194.945 0 353.070 159.322 353.070 355.744s-158.125 355.744-353.070 355.744c-194.945 0-353.070-159.322-353.070-355.744h151.316l-203.52-205.317-3.53 7.368-196.459 197.946h151.316c0 252.58 202.763 457.388 453.696 457.388zM731.292 510.184v9.155c0 19.937-3.485 33.566-10.455 40.889s-16.558 10.985-28.757 10.985c-26.143 0-39.214-16.274-39.214-48.824v-85.443h94.767l-13.071-70.185h-81.696v-88.494h166.659v-70.185h-287.569v70.185h32.68v88.494h-33.985v70.185h33.985v88.494c0 35.804 11.112 64.082 33.331 84.831s53.592 31.124 94.113 31.124c84.965 0 127.446-39.67 127.446-119.009v-12.206h-88.231z" />
<glyph unicode="&#xe90d;" glyph-name="return_icon" d="M512 896.001c259.206 0 469.334-210.128 469.334-469.334s-210.128-469.334-469.334-469.334c-259.206 0-469.334 210.128-469.334 469.334s210.128 469.334 469.334 469.334zM396.727 614.401l-197.614-202.457 197.614-202.457 46.604 47.748-118.074 120.967h499.634v202.457h-65.873v-134.971h-433.763l118.074 120.967-46.604 47.748z" />
<glyph unicode="&#xe90e;" glyph-name="address-lookup-icon" d="M838.836 169.713l137.444-133.865c6.74-6.752 6.74-17.726 0-24.478v0l-48.742-48.958c-6.722-6.768-17.633-6.768-24.37 0v0l-137.444 133.865c26.991 21.691 51.516 46.324 73.114 73.436v0zM481.664 896.001c242.065 0 438.998-197.815 438.998-440.96s-196.935-440.96-438.998-440.96c-242.065 0-438.998 197.815-438.998 440.96s196.935 440.96 438.998 440.96zM481.664 860.722c-222.695 0-403.879-181.993-403.879-405.684s181.184-405.684 403.879-405.684c222.695 0 403.879 181.993 403.879 405.684s-181.184 405.684-403.879 405.684zM668.444 532.497c0 114.228-87.673 207.057-195.556 207.057s-195.556-92.832-195.556-207.057c0-155.294 195.556-379.609 195.556-379.609s195.556 224.314 195.556 379.609zM407.704 532.497c0 37.961 29.334 69.020 65.186 69.020s65.186-31.057 65.186-69.020c0-37.961-29.007-69.020-65.186-69.020-35.852 0-65.186 31.057-65.186 69.020z" />
<glyph unicode="&#xe90f;" glyph-name="currency" d="M642.87 611.756v19.832c0 43.187-7.164 72.713-21.497 88.58s-34.035 23.796-59.115 23.796c-53.743 0-80.615-35.255-80.615-105.765v-185.089h194.816l-26.872-152.037h-167.942v-191.699h342.606v-152.037h-591.162v152.037h67.178v191.699h-69.864v152.037h69.864v191.699c0 77.562 22.842 138.815 68.52 183.766s110.169 67.425 193.473 67.425c174.663 0 261.992-85.933 261.992-257.804v-26.442h-181.379z" />
<glyph unicode="&#xe910;" glyph-name="to-left" d="M330.972 896.001c25.922 0 46.934-21.012 46.934-46.934v-844.8c0-25.922-21.012-46.934-46.934-46.934h-241.372c-25.922 0-46.934 21.012-46.934 46.934v844.8c0 25.922 21.012 46.934 46.934 46.934h241.372zM699.734 708.267l49.632-49.632-196.416-196.768h428.384v-70.4h-428.384l196.768-196.416-49.984-49.984-281.6 281.6 281.6 281.6z" />
<glyph unicode="&#xe911;" glyph-name="to-right" d="M693.028 896.001c-25.922 0-46.934-21.012-46.934-46.934v-844.8c0-25.922 21.012-46.934 46.934-46.934h241.372c25.922 0 46.934 21.012 46.934 46.934v844.8c0 25.922-21.012 46.934-46.934 46.934h-241.372zM324.266 708.267l-49.632-49.632 196.416-196.768h-428.384v-70.4h428.384l-196.768-196.416 49.984-49.984 281.6 281.6-281.6 281.6z" />
<glyph unicode="&#xe912;" glyph-name="leader" d="M697.621 376.867c90.524 0 163.91-73.384 163.91-163.91 0-12.039-1.328-24.040-3.953-35.788l-49.185-219.835h-577.991l-49.185 219.835c-19.766 88.341 35.826 175.978 124.166 195.743 11.748 2.629 23.75 3.953 35.788 3.953l178.227-341.115 178.227 341.115zM540.765 399.503c8.531 0 15.367-7.068 15.083-15.593v-27.104c0-1.671-0.556-3.292-1.576-4.613l-4.298-5.559c-1.209-1.88-1.521-4.199-0.855-6.329l32.903-105.291-61.874-112.278-61.874 112.278 32.903 105.291c0.668 2.134 0.353 4.452-0.855 6.329l-3.762 5.846c-0.736 1.145-1.15 2.47-1.195 3.83l-0.919 27.599c-0.285 8.526 6.549 15.593 15.083 15.593h41.234zM519.394 896.001c132.935 0 240.702-107.767 240.702-240.702s-107.767-240.702-240.702-240.702c-132.935 0-240.702 107.767-240.702 240.702s107.767 240.702 240.702 240.702zM418.286 784.527c-17.161-80.982-68.149-126.622-96.778-144.265 7.685-102.575 93.346-183.411 197.887-183.411 109.598 0 198.448 88.848 198.448 198.448 0 12.842-1.221 25.403-3.552 37.566-150.919-27.698-259.998 49.197-296.008 91.662z" />
<glyph unicode="&#xe913;" glyph-name="url" d="M538.609 550.176c25.99-11.973 50.051-27.932 71.032-48.091 48.51-46.608 75.272-108.563 75.272-174.509s-26.76-127.897-75.229-174.549v0l-128.447-123.373c-48.554-46.651-113.035-72.321-181.668-72.321s-133.116 25.671-181.668 72.321c-48.51 46.608-75.229 108.563-75.229 174.509s26.718 127.897 75.229 174.509v0l128.447 123.413c3.682 3.498 7.579 6.666 11.388 9.914-0.429-6.583-0.984-13.207-0.984-19.869 0-29.165 4.196-57.633 11.775-85.074v0l-90.085-86.556c-32.328-31.1-50.138-72.402-50.138-116.338s17.811-85.238 50.182-116.338c64.695-62.201 177.474-62.201 242.211 0v0l128.447 123.373c32.328 31.1 50.138 72.445 50.138 116.38s-17.854 85.238-50.182 116.338c-9.462 9.092-19.995 16.579-31.086 23.202-2.654 7.941-4.367 16.248-4.367 25.013 0 21.885 8.905 42.537 24.962 58.046zM724.435 896c68.633 0 133.116-25.671 181.668-72.321 48.51-46.608 75.229-108.563 75.229-174.509s-26.718-127.897-75.186-174.509v0l-128.447-123.413c-3.641-3.498-7.535-6.622-11.345-9.873 0.385 6.583 0.899 13.164 0.899 19.829 0 29.126-4.28 57.552-11.902 84.952v0l90.214 86.677c32.328 31.1 50.138 72.402 50.138 116.338s-17.811 85.238-50.138 116.338c-32.37 31.1-75.4 48.214-121.126 48.214s-88.758-17.114-121.126-48.214v0l-128.447-123.373c-32.328-31.1-50.138-72.445-50.138-116.38s17.854-85.238 50.225-116.338c9.335-8.968 19.823-16.248 30.87-22.626 2.783-8.104 4.54-16.621 4.54-25.587 0-21.885-8.905-42.537-25.004-58.046-25.99 11.973-50.051 27.932-71.032 48.091-48.51 46.608-75.229 108.563-75.229 174.509s26.76 127.897 75.229 174.549v0l128.447 123.373c48.554 46.651 113.035 72.321 181.668 72.321z" />
<glyph unicode="&#xe914;" glyph-name="refund-delivery-charge" d="M895.999 896c47.146 0 85.333-41.569 85.333-92.89v-706.443h-85.333c0-76.864-57.387-139.334-128-139.334s-128 62.469-128 139.334h-256c0-76.864-57.387-139.334-128-139.334s-128 62.469-128 139.334h-85.333v232.221l128 185.778h128v381.334h597.333zM768 166.333c-35.412 0-63.999-31.118-63.999-69.666s28.587-69.666 63.999-69.666c35.412 0 63.999 31.118 63.999 69.666s-28.587 69.666-63.999 69.666zM256 166.333c-35.412 0-63.999-31.118-63.999-69.666s28.587-69.666 63.999-69.666c35.412 0 63.999 31.118 63.999 69.666s-28.587 69.666-63.999 69.666zM666.202 847.111c-108.116 0-184.708-69.068-184.708-164.948v-86.48h-36.96c-8.748 0-15.84-7.035-15.84-15.716v-52.382c0-8.678 7.092-15.716 15.84-15.716h36.96v-167.618h-47.52c-8.748 0-15.84-7.035-15.84-15.716v-52.382c0-8.678 7.092-15.716 15.84-15.716h390.719c8.748 0 15.84 7.035 15.84 15.716v136.19c0 8.678-7.092 15.716-15.84 15.716h-60.052c-8.748 0-15.84-7.035-15.84-15.716v-66.586h-161.708v166.11h110.88c8.748 0 15.84 7.035 15.84 15.716v52.382c0 8.678-7.092 15.716-15.84 15.716h-110.88v83.227c0 42.252 32.42 74.755 81.565 74.755 31.229 0 60.558-15.067 76.1-24.683 6.798-4.208 15.693-2.686 20.709 3.515l37.611 46.505c5.588 6.909 4.328 17.031-2.796 22.367-21.625 16.198-69.866 45.738-134.079 45.738zM298.666 445.001h-106.667l-83.841-116.11h190.507v116.11zM336.619 828.658v-122.702h-227.725l61.988 66.154-24.467 26.112-103.746-110.718 103.746-110.718 24.467 26.112-61.988 66.154h262.307v159.609h-34.582z" />
<glyph unicode="&#xe915;" glyph-name="pointer" horiz-adv-x="632" d="M246.889 243.454c3.727 0 7.45-1.24 11.175-2.483 9.934-3.727 17.382-11.175 21.108-19.868l70.777-180.047 54.634 21.108-72.017 185.013c-3.727 9.934-3.727 21.108 2.483 29.802 4.966 8.693 13.661 16.141 24.834 17.382l147.762 27.316-407.277 445.773v-603.468l127.894 75.744c6.206 2.483 12.416 3.727 18.627 3.727zM330.081-39.653c-13.661 0-27.316 8.693-32.283 22.35l-68.293 175.080-145.281-85.678c-11.175-6.206-24.834-6.206-34.767 0-11.175 6.206-17.382 17.382-17.382 31.043v756.197c0 14.9 8.693 27.316 22.35 32.283s28.561 1.24 38.495-8.693l509.097-560.007c8.693-9.934 11.175-22.35 7.45-34.767s-14.9-21.108-27.316-23.594l-168.872-31.043 69.538-177.564c3.727-8.693 3.727-18.627 0-27.316s-11.175-14.9-19.868-18.627l-120.447-45.943c-4.966-2.483-8.693-3.727-12.416-3.727z" />
<glyph unicode="&#xe916;" glyph-name="contact-history" d="M891.256 745.243c41.719 0 75.851-34.134 75.851-75.851v0l-0.378-530.961c0-41.719-33.754-75.851-75.472-75.851v0h-758.519c-41.719 0-75.851 34.134-75.851 75.851v0 530.961c0 41.719 34.134 75.851 75.851 75.851v0zM876.054 631.467h-204.762c-12.568 0-22.758-10.187-22.758-22.758v-113.894c0-0.073 0.026-0.144 0.076-0.198l69.227-75.334c7.994-8.698 8.001-22.064 0.020-30.775l-69.222-75.514c-0.058-0.064-0.058-0.166 0-0.23l0.104-0.267-0.176-113.36c-0.016-11.174 8.016-20.474 18.63-22.416l4.090-0.374c0.011 0 0.024 0 0.038 0h204.762c12.568 0 22.758 10.187 22.758 22.758v104.714c0 5.684-2.128 11.162-5.961 15.354l-63.398 69.337c-7.962 8.71-7.947 22.064 0.038 30.753l69.221 75.322c0.058 0.064 0.058 0.166 0 0.23l-0.104 0.267 0.176 113.589c0.016 11.174-8.016 20.474-18.63 22.416l-4.122 0.374zM360.297 331.852c-75.851 0-227.557-41.719-227.557-117.572v0-37.926h455.11v37.926c0 75.851-151.703 117.572-227.557 117.572zM360.297 631.467c-62.959 0-113.776-50.822-113.776-113.776s50.822-113.776 113.776-113.776c62.959 0 113.776 50.822 113.776 113.776s-50.822 113.776-113.776 113.776zM839.269 585.957c12.568 0 22.758-10.187 22.758-22.758 0-3.532-0.823-7.016-2.402-10.177l-65.583-131.162c-5.621-11.24-19.29-15.798-30.53-10.177-4.405 2.202-7.974 5.772-10.177 10.177l-65.583 131.162c-5.621 11.24-1.064 24.912 10.177 30.53 3.16 1.579 6.645 2.402 10.177 2.402h131.162z" />
<glyph unicode="&#xe917;" glyph-name="order-history" d="M734.295 632.736l-186.879 243.796c-8.107 12.409-21.759 18.614-35.412 18.614s-27.307-6.205-35.412-19.059l-186.879-243.353h-204.372c-23.466 0-42.668-19.943-42.668-44.319 0-3.989 0.428-7.976 1.707-11.966l108.373-555.266c9.813-37.229 42.668-64.705 81.92-64.705h554.666c39.255 0 72.107 27.478 82.346 64.705l108.373 555.266 1.282 11.966c0 24.375-19.2 44.319-42.668 44.319h-204.372zM383.998 632.736l128.002 148.068 128.002-148.068h-256zM552.095 544.001c-133.424 0-241.238-105.080-241.238-234.665h-80.457l104.462-101.56 1.878-3.779 108.214 105.34h-80.457c0 100.776 84.076 182.52 187.734 182.52s187.734-81.742 187.734-182.52c0-100.776-84.076-182.52-187.734-182.52-51.895 0-98.694 20.6-132.622 53.582l-37.95-36.894c43.582-42.499 103.788-68.837 170.434-68.837 133.424 0 241.505 105.080 241.505 234.665s-108.080 234.665-241.505 234.665zM512 426.667v-155.615l120.524-79.053 20.275 37.815-98.56 64.581v132.272h-42.24z" />
<glyph unicode="&#xe918;" glyph-name="failed-payment" d="M103.273 865.967l850.15-850.15-65.395-65.395-68.382 68.391 0.007-54.567h-582.457v149.799h66.188v188.876h-68.836v149.799h68.836l-0.030 82.386-265.475 265.465 65.395 65.395zM724.388 114.069l-188.854 188.854-53.444-0.002v-188.876l242.297 0.025zM674.039 452.721l-13.831-78.259-78.287 78.287 92.12-0.029zM561.518 889.088c172.091 0 258.135-84.667 258.135-254.005v-26.054h-178.708v19.539c0 42.553-7.061 71.643-21.18 87.274s-33.536 23.445-58.245 23.445c-52.952 0-79.427-34.736-79.427-104.206l-0.010-82.497-168.993 169.001c10.594 39.883 29.865 73.574 57.808 101.070 45.006 44.287 108.548 66.432 190.62 66.432z" />
<glyph unicode="&#xe919;" glyph-name="sticky-note" d="M877.036 896.001h-730.596c-57.364 0-103.774-46.934-103.774-104.296l0.52-730.073c0-57.364 46.412-104.296 103.774-104.296h521.48l312.89 312.89v521.48c0 57.364-46.934 104.296-104.296 104.296zM230.4 614.401h563.2v-93.866h-563.2v93.866zM512 332.801h-281.6v93.866h281.6v-93.866zM605.866 4.267v328.534h328.534l-328.534-328.534z" />
</font>
</defs>
</svg>
